<svg xmlns="http://www.w3.org/2000/svg" viewBox="0 0 430 430">
  <defs>
    <style>
      .cls-1 {
        isolation: isolate;
      }

      .cls-2, .cls-3 {
        fill: #ffc738;
      }

      .cls-11, .cls-3, .cls-6, .cls-7 {
        mix-blend-mode: multiply;
        opacity: 0.5;
      }

      .cls-4, .cls-7 {
        fill: #3a3347;
      }

      .cls-5 {
        fill: #08a88a;
      }

      .cls-8, .cls-9 {
        fill: #646e78;
      }

      .cls-8 {
        opacity: 0.34;
      }

      .cls-10, .cls-11 {
        fill: #ebe6ef;
      }

      .cls-12 {
        fill: #121331;
      }
    </style>
  </defs>
  <g class="cls-1">
    <g id="Warstwa_1" data-name="Warstwa 1">
      <g>
        <rect class="cls-2" x="84.08" y="99.79" width="40.65" height="33.65" rx="3.5"/>
        <path class="cls-3" d="M104.4,99.79H87.58a3.5,3.5,0,0,0-3.5,3.5v26.65a3.5,3.5,0,0,0,3.5,3.5H104.4Z"/>
        <path class="cls-4" d="M376.07,126.44H278.54L263,86.65a3.49,3.49,0,0,0-3.26-2.23h-89.5A3.49,3.49,0,0,0,167,86.65l-15.53,39.79H53.93a3.5,3.5,0,0,0-3.5,3.5V342.08a3.5,3.5,0,0,0,3.5,3.5H376.07a3.5,3.5,0,0,0,3.5-3.5V129.94A3.5,3.5,0,0,0,376.07,126.44Z"/>
        <path class="cls-5" d="M334.57,183.65a19.9,19.9,0,1,1,19.89-19.89A19.91,19.91,0,0,1,334.57,183.65Zm0-32.79a12.9,12.9,0,1,0,12.89,12.9A12.91,12.91,0,0,0,334.57,150.86Z"/>
        <g class="cls-6">
          <path class="cls-4" d="M200.63,86.65l1-2.23H170.25A3.49,3.49,0,0,0,167,86.65l-15.53,39.79h33.65Z"/>
          <path class="cls-4" d="M84.08,129.94v-3.5H53.93a3.5,3.5,0,0,0-3.5,3.5V342.08a3.5,3.5,0,0,0,3.5,3.5H84.08V129.94Z"/>
        </g>
        <path class="cls-7" d="M199.82,163.76a83.61,83.61,0,1,0,83.61,83.61A83.69,83.69,0,0,0,199.82,163.76Z"/>
        <path class="cls-8" d="M215,152.4h0a83.61,83.61,0,0,0,0,167.22h0Z"/>
        <path class="cls-9" d="M215,152.4A83.61,83.61,0,1,0,298.61,236,83.71,83.71,0,0,0,215,152.4Z"/>
        <path class="cls-10" d="M215,178a58,58,0,1,0,58,58A58.06,58.06,0,0,0,215,178Z"/>
        <path class="cls-11" d="M233.72,283a55.23,55.23,0,0,1-24.58-104.7,58,58,0,1,0,44.32,101A55.1,55.1,0,0,1,233.72,283Z"/>
        <path class="cls-12" d="M215,319.62A83.61,83.61,0,1,1,298.61,236,83.71,83.71,0,0,1,215,319.62Zm0-160.22A76.61,76.61,0,1,0,291.61,236,76.7,76.7,0,0,0,215,159.4Z"/>
        <path class="cls-12" d="M376.07,126.44H278.54L263,86.65a3.49,3.49,0,0,0-3.26-2.23h-89.5A3.49,3.49,0,0,0,167,86.65l-15.53,39.79H124.73V103.29a3.5,3.5,0,0,0-3.5-3.5H87.58a3.5,3.5,0,0,0-3.5,3.5v23.15H53.93a3.5,3.5,0,0,0-3.5,3.5V342.08a3.5,3.5,0,0,0,3.5,3.5H376.07a3.5,3.5,0,0,0,3.5-3.5V129.94A3.5,3.5,0,0,0,376.07,126.44Zm-203.43-35h84.72l13.67,35H159ZM91.08,106.79h26.65v19.65H91.08ZM372.57,338.58H57.43V133.44H372.57Z"/>
        <path class="cls-12" d="M215,294a58,58,0,1,1,58-58A58.06,58.06,0,0,1,215,294Zm0-109a51,51,0,1,0,51,51A51.06,51.06,0,0,0,215,185Z"/>
      </g>
    </g>
  </g>
</svg>
