<svg xmlns="http://www.w3.org/2000/svg" width="1276" height="320" viewBox="0 0 1276 320" fill="none">
<path opacity="0.5" fill-rule="evenodd" clip-rule="evenodd" d="M13 304V301C13 300.735 13.1054 300.48 13.2929 300.293C13.4804 300.105 13.7348 300 14 300C14.2652 300 14.5196 300.105 14.7071 300.293C14.8946 300.48 15 300.735 15 301V304H13ZM10 304V299C10 298.735 10.1054 298.48 10.2929 298.293C10.4804 298.105 10.7348 298 11 298C11.2652 298 11.5196 298.105 11.7071 298.293C11.8946 298.48 12 298.735 12 299V304H10ZM7 304V301C7 300.735 7.10536 300.48 7.29289 300.293C7.48043 300.105 7.73478 300 8 300C8.26522 300 8.51957 300.105 8.70711 300.293C8.89464 300.48 9 300.735 9 301V304H7ZM4 304V303C4 302.735 4.10536 302.48 4.29289 302.293C4.48043 302.105 4.73478 302 5 302C5.26522 302 5.51957 302.105 5.70711 302.293C5.89464 302.48 6 302.735 6 303V304H4Z" fill="white"/>
<path fill-rule="evenodd" clip-rule="evenodd" d="M17 314V307C17 306.735 16.8946 306.48 16.7071 306.293C16.5196 306.105 16.2652 306 16 306C15.7348 306 15.4804 306.105 15.2929 306.293C15.1054 306.48 15 306.735 15 307V310.051C14.8348 310.022 14.6677 310.005 14.5 310C13.5717 310 12.6815 310.369 12.0251 311.025C11.3688 311.681 11 312.572 11 313.5C11.0059 313.668 11.0246 313.835 11.056 314H0V304H20V314H17ZM5 307C4.60444 307 4.21775 307.117 3.88885 307.337C3.55996 307.557 3.30361 307.869 3.15224 308.235C3.00086 308.6 2.96127 309.002 3.03844 309.39C3.11561 309.778 3.30608 310.135 3.58578 310.414C3.86549 310.694 4.22186 310.884 4.60982 310.962C4.99778 311.039 5.39991 310.999 5.76537 310.848C6.13082 310.696 6.44317 310.44 6.66293 310.111C6.8827 309.782 7 309.396 7 309C7 308.47 6.78929 307.961 6.41422 307.586C6.03914 307.211 5.53043 307 5 307Z" fill="white"/>
<path opacity="0.7" d="M5 311C6.10457 311 7 310.105 7 309C7 307.895 6.10457 307 5 307C3.89543 307 3 307.895 3 309C3 310.105 3.89543 311 5 311Z" fill="white"/>
<path opacity="0.5" fill-rule="evenodd" clip-rule="evenodd" d="M17 314.937C16.4192 315.873 15.6094 316.645 14.647 317.181C13.6847 317.717 12.6015 317.999 11.5 318H10.5C9.21674 318 7.96219 317.62 6.89445 316.908C5.82672 316.196 4.99356 315.185 4.5 314H11.056C11.0246 313.835 11.0059 313.668 11 313.5C11 312.572 11.3688 311.681 12.0251 311.025C12.6815 310.369 13.5717 310 14.5 310C14.6677 310.005 14.8348 310.022 15 310.051V307C15 306.735 15.1054 306.48 15.2929 306.293C15.4804 306.105 15.7348 306 16 306C16.2652 306 16.5196 306.105 16.7071 306.293C16.8946 306.48 17 306.735 17 307V314.937Z" fill="white"/>
<path fill-rule="evenodd" clip-rule="evenodd" d="M69.108 314C69.108 314 68.878 312.6 68.801 312.248H65.483C65.391 312.523 64.932 314 64.932 314H62.225L66.064 304.844C66.1594 304.572 66.3447 304.34 66.5894 304.187C66.8341 304.035 67.1236 303.97 67.41 304.004H69.41L71.51 314.004H69.11L69.108 314ZM67.777 307.559L67.593 306.705C67.471 307.086 67.241 307.682 67.257 307.666C67.257 307.666 66.431 309.878 66.232 310.458H68.373C68.266 309.955 67.777 307.559 67.777 307.559V307.559ZM62.209 306.309C61.6043 306.036 60.9451 305.905 60.282 305.927C59.257 305.927 58.798 306.354 58.782 306.781C58.782 307.255 59.333 307.559 60.25 308.017C61.734 308.717 62.422 309.589 62.407 310.733C62.392 312.792 60.633 314.133 57.907 314.133C56.9238 314.136 55.9488 313.955 55.032 313.6L55.383 311.357L55.735 311.525C56.4861 311.894 57.3151 312.078 58.152 312.059C58.4874 312.124 58.8352 312.06 59.1249 311.879C59.4146 311.697 59.6244 311.412 59.712 311.082C59.712 310.64 59.376 310.319 58.366 309.831C57.387 309.359 56.087 308.566 56.102 307.131C56.118 305.194 57.907 303.831 60.462 303.831C61.2555 303.826 62.0432 303.965 62.787 304.242L62.435 306.409L62.209 306.309ZM50.829 314L52.451 304H55.036L53.415 314H50.829ZM44.604 314L42.597 306.472L42.44 305.861C42.7937 306.038 43.1287 306.25 43.44 306.494C44.3814 307.262 45.1863 308.184 45.821 309.22L45.813 309.177L45.863 309.436L46.139 310.809L48.673 304H51.411L47.342 314H44.6H44.604Z" fill="white"/>
<path opacity="0.5" fill-rule="evenodd" clip-rule="evenodd" d="M43.435 306.494C43.1237 306.25 42.7887 306.038 42.435 305.861L42.288 305.307C41.5579 304.877 40.7777 304.538 39.965 304.298V303.988H43.936C44.1741 303.989 44.4047 304.071 44.5894 304.221C44.7742 304.371 44.9018 304.58 44.951 304.813L45.811 309.22C45.1778 308.184 44.3746 307.263 43.435 306.494Z" fill="white"/>
<path opacity="0.5" fill-rule="evenodd" clip-rule="evenodd" d="M295 316C293.595 316 292.215 315.628 291 314.921C292.216 314.22 293.226 313.212 293.928 311.997C294.63 310.782 295 309.403 295 308C295 306.597 294.63 305.218 293.928 304.003C293.226 302.788 292.216 301.78 291 301.079C292.063 300.463 293.253 300.1 294.478 300.018C295.704 299.936 296.932 300.137 298.067 300.606C299.202 301.075 300.214 301.799 301.024 302.722C301.835 303.645 302.422 304.742 302.74 305.929C303.058 307.115 303.098 308.359 302.858 309.563C302.618 310.768 302.104 311.901 301.356 312.875C300.607 313.849 299.645 314.637 298.543 315.179C297.44 315.721 296.228 316.002 295 316V316Z" fill="white"/>
<path fill-rule="evenodd" clip-rule="evenodd" d="M287 308C287 309.403 287.37 310.782 288.072 311.997C288.775 313.212 289.784 314.22 291 314.921C289.784 315.626 288.404 315.998 286.998 316C285.593 316.002 284.212 315.633 282.994 314.932C281.776 314.23 280.764 313.22 280.061 312.003C279.358 310.786 278.988 309.406 278.988 308C278.988 306.594 279.358 305.214 280.061 303.997C280.764 302.78 281.776 301.77 282.994 301.068C284.212 300.367 285.593 299.998 286.998 300C288.404 300.002 289.784 300.374 291 301.079C289.784 301.78 288.775 302.788 288.072 304.003C287.37 305.218 287 306.597 287 308V308Z" fill="white"/>
<path opacity="0.75" fill-rule="evenodd" clip-rule="evenodd" d="M291 314.921C289.784 314.22 288.774 313.212 288.072 311.997C287.37 310.782 287 309.403 287 308C287 306.597 287.37 305.218 288.072 304.003C288.774 302.788 289.784 301.78 291 301.079C292.216 301.78 293.226 302.788 293.928 304.003C294.63 305.218 295 306.597 295 308C295 309.403 294.63 310.782 293.928 311.997C293.226 313.212 292.216 314.22 291 314.921V314.921Z" fill="white"/>
<path opacity="0.4" fill-rule="evenodd" clip-rule="evenodd" d="M13 254V251C13 250.735 13.1054 250.48 13.2929 250.293C13.4804 250.105 13.7348 250 14 250C14.2652 250 14.5196 250.105 14.7071 250.293C14.8946 250.48 15 250.735 15 251V254H13ZM10 254V249C10 248.735 10.1054 248.48 10.2929 248.293C10.4804 248.105 10.7348 248 11 248C11.2652 248 11.5196 248.105 11.7071 248.293C11.8946 248.48 12 248.735 12 249V254H10ZM7 254V251C7 250.735 7.10536 250.48 7.29289 250.293C7.48043 250.105 7.73478 250 8 250C8.26522 250 8.51957 250.105 8.70711 250.293C8.89464 250.48 9 250.735 9 251V254H7ZM4 254V253C4 252.735 4.10536 252.48 4.29289 252.293C4.48043 252.105 4.73478 252 5 252C5.26522 252 5.51957 252.105 5.70711 252.293C5.89464 252.48 6 252.735 6 253V254H4Z" fill="#080808"/>
<path fill-rule="evenodd" clip-rule="evenodd" d="M17 264V257C17 256.735 16.8946 256.48 16.7071 256.293C16.5196 256.105 16.2652 256 16 256C15.7348 256 15.4804 256.105 15.2929 256.293C15.1054 256.48 15 256.735 15 257V260.051C14.8348 260.022 14.6677 260.005 14.5 260C13.5717 260 12.6815 260.369 12.0251 261.025C11.3688 261.681 11 262.572 11 263.5C11.0059 263.668 11.0246 263.835 11.056 264H0V254H20V264H17ZM5 257C4.60444 257 4.21775 257.117 3.88885 257.337C3.55996 257.557 3.30361 257.869 3.15224 258.235C3.00086 258.6 2.96127 259.002 3.03844 259.39C3.11561 259.778 3.30608 260.135 3.58578 260.414C3.86549 260.694 4.22186 260.884 4.60982 260.962C4.99778 261.039 5.39991 260.999 5.76537 260.848C6.13082 260.696 6.44317 260.44 6.66293 260.111C6.8827 259.782 7 259.396 7 259C7 258.47 6.78929 257.961 6.41422 257.586C6.03914 257.211 5.53043 257 5 257Z" fill="black"/>
<path opacity="0.5" d="M5 261C6.10457 261 7 260.105 7 259C7 257.895 6.10457 257 5 257C3.89543 257 3 257.895 3 259C3 260.105 3.89543 261 5 261Z" fill="black"/>
<path opacity="0.4" fill-rule="evenodd" clip-rule="evenodd" d="M17 264.937C16.4192 265.873 15.6094 266.645 14.647 267.181C13.6847 267.717 12.6015 267.999 11.5 268H10.5C9.21674 268 7.96219 267.62 6.89445 266.908C5.82672 266.196 4.99356 265.185 4.5 264H11.056C11.0246 263.835 11.0059 263.668 11 263.5C11 262.572 11.3688 261.681 12.0251 261.025C12.6815 260.369 13.5717 260 14.5 260C14.6677 260.005 14.8348 260.022 15 260.051V257C15 256.735 15.1054 256.48 15.2929 256.293C15.4804 256.105 15.7348 256 16 256C16.2652 256 16.5196 256.105 16.7071 256.293C16.8946 256.48 17 256.735 17 257V264.937Z" fill="#080808"/>
<path fill-rule="evenodd" clip-rule="evenodd" d="M69.108 264C69.108 264 68.878 262.6 68.801 262.248H65.483C65.391 262.523 64.932 264 64.932 264H62.225L66.064 254.844C66.1594 254.572 66.3447 254.34 66.5894 254.187C66.8341 254.035 67.1236 253.97 67.41 254.004H69.41L71.51 264.004H69.11L69.108 264ZM67.777 257.559L67.593 256.705C67.471 257.086 67.241 257.681 67.257 257.666C67.257 257.666 66.431 259.878 66.232 260.458H68.373C68.266 259.955 67.777 257.559 67.777 257.559V257.559ZM62.209 256.309C61.6043 256.036 60.9451 255.905 60.282 255.927C59.257 255.927 58.798 256.354 58.782 256.781C58.782 257.255 59.333 257.559 60.25 258.017C61.734 258.717 62.422 259.589 62.407 260.733C62.392 262.792 60.633 264.133 57.907 264.133C56.9238 264.136 55.9488 263.955 55.032 263.6L55.383 261.357L55.735 261.525C56.4861 261.894 57.3151 262.078 58.152 262.059C58.4874 262.124 58.8352 262.06 59.1249 261.879C59.4146 261.697 59.6244 261.412 59.712 261.082C59.712 260.64 59.376 260.319 58.366 259.831C57.387 259.359 56.087 258.565 56.102 257.131C56.118 255.194 57.907 253.831 60.462 253.831C61.2555 253.826 62.0432 253.965 62.787 254.242L62.435 256.409L62.209 256.309ZM50.829 264L52.451 254H55.036L53.415 264H50.829ZM44.604 264L42.597 256.472L42.44 255.861C42.7937 256.038 43.1287 256.25 43.44 256.494C44.3814 257.262 45.1863 258.184 45.821 259.22L45.813 259.177L45.863 259.436L46.139 260.809L48.673 254H51.411L47.342 264H44.6H44.604Z" fill="black"/>
<path opacity="0.35" fill-rule="evenodd" clip-rule="evenodd" d="M43.435 256.494C43.1237 256.25 42.7887 256.038 42.435 255.861L42.288 255.307C41.5577 254.877 40.7776 254.538 39.965 254.298V253.988H43.936C44.1741 253.989 44.4047 254.071 44.5894 254.221C44.7742 254.371 44.9018 254.58 44.951 254.813L45.811 259.22C45.1778 258.184 44.3746 257.263 43.435 256.494Z" fill="black"/>
<path opacity="0.3" fill-rule="evenodd" clip-rule="evenodd" d="M295 266C293.595 266 292.215 265.628 291 264.921C292.216 264.22 293.226 263.212 293.928 261.997C294.63 260.782 295 259.403 295 258C295 256.597 294.63 255.218 293.928 254.003C293.226 252.788 292.216 251.78 291 251.079C292.063 250.463 293.253 250.1 294.478 250.018C295.704 249.936 296.932 250.137 298.067 250.606C299.202 251.075 300.214 251.799 301.024 252.722C301.835 253.645 302.422 254.742 302.74 255.929C303.058 257.115 303.098 258.359 302.858 259.563C302.618 260.768 302.104 261.901 301.356 262.875C300.607 263.849 299.645 264.637 298.543 265.179C297.44 265.721 296.228 266.002 295 266V266Z" fill="black"/>
<path fill-rule="evenodd" clip-rule="evenodd" d="M287 258C287 259.403 287.37 260.782 288.072 261.997C288.775 263.212 289.784 264.22 291 264.921C289.784 265.626 288.404 265.998 286.998 266C285.593 266.002 284.212 265.633 282.994 264.932C281.776 264.23 280.764 263.22 280.061 262.003C279.358 260.786 278.988 259.406 278.988 258C278.988 256.594 279.358 255.214 280.061 253.997C280.764 252.78 281.776 251.77 282.994 251.068C284.212 250.367 285.593 249.998 286.998 250C288.404 250.002 289.784 250.374 291 251.079C289.784 251.78 288.775 252.788 288.072 254.003C287.37 255.218 287 256.597 287 258V258Z" fill="black"/>
<path opacity="0.65" fill-rule="evenodd" clip-rule="evenodd" d="M291 264.921C289.784 264.22 288.774 263.212 288.072 261.997C287.37 260.782 287 259.403 287 258C287 256.597 287.37 255.218 288.072 254.003C288.774 252.788 289.784 251.78 291 251.079C292.216 251.78 293.226 252.788 293.928 254.003C294.63 255.218 295 256.597 295 258C295 259.403 294.63 260.782 293.928 261.997C293.226 263.212 292.216 264.22 291 264.921V264.921Z" fill="black"/>
<path fill-rule="evenodd" clip-rule="evenodd" d="M11 198C11.2652 198 11.5196 198.105 11.7071 198.293C11.8946 198.48 12 198.735 12 199V205C12 205.265 11.8946 205.52 11.7071 205.707C11.5196 205.895 11.2652 206 11 206C10.7348 206 10.4804 205.895 10.2929 205.707C10.1054 205.52 10 205.265 10 205V199C10 198.735 10.1054 198.48 10.2929 198.293C10.4804 198.105 10.7348 198 11 198ZM14 200C14.2652 200 14.5196 200.105 14.7071 200.293C14.8946 200.48 15 200.735 15 201V207C15 207.265 14.8946 207.52 14.7071 207.707C14.5196 207.895 14.2652 208 14 208C13.7348 208 13.4804 207.895 13.2929 207.707C13.1054 207.52 13 207.265 13 207V201C13 200.735 13.1054 200.48 13.2929 200.293C13.4804 200.105 13.7348 200 14 200ZM8 200C8.26522 200 8.51957 200.105 8.70711 200.293C8.89464 200.48 9 200.735 9 201V206C9 206.265 8.89464 206.52 8.70711 206.707C8.51957 206.895 8.26522 207 8 207C7.73478 207 7.48043 206.895 7.29289 206.707C7.10536 206.52 7 206.265 7 206V201C7 200.735 7.10536 200.48 7.29289 200.293C7.48043 200.105 7.73478 200 8 200ZM5 202C5.26522 202 5.51957 202.105 5.70711 202.293C5.89464 202.48 6 202.735 6 203V207C6 207.265 5.89464 207.52 5.70711 207.707C5.51957 207.895 5.26522 208 5 208C4.73478 208 4.48043 207.895 4.29289 207.707C4.10536 207.52 4 207.265 4 207V203C4 202.735 4.10536 202.48 4.29289 202.293C4.48043 202.105 4.73478 202 5 202Z" fill="#F3C4B7"/>
<path opacity="0.5" fill-rule="evenodd" clip-rule="evenodd" d="M13 204.011V202.985H15.011V204.011H13ZM12 204.011H10V202.985H12V204.011ZM7 202.985H9V204.011H7V202.985ZM4.011 202.985H6V204.011H4.011V202.985Z" fill="#D09889"/>
<path fill-rule="evenodd" clip-rule="evenodd" d="M17 209V214.931C16.4199 215.868 15.6104 216.642 14.648 217.179C13.6856 217.716 12.6021 217.998 11.5 218H10.5C8.77609 218 7.1228 217.315 5.90381 216.096C4.68482 214.877 4 213.224 4 211.5V210.5C4.00778 209.993 4.07833 209.489 4.21001 209H17Z" fill="#F3C4B7"/>
<path d="M20 204H0V214H20V204Z" fill="#76A158"/>
<path d="M20 204H0V205H20V204Z" fill="#89AF6D"/>
<path opacity="0.7" d="M5.5 211C6.88071 211 8 209.881 8 208.5C8 207.119 6.88071 206 5.5 206C4.11929 206 3 207.119 3 208.5C3 209.881 4.11929 211 5.5 211Z" fill="#9FD17D"/>
<path fill-rule="evenodd" clip-rule="evenodd" d="M17 214V213H20V214H17ZM10.141 214H0V213H10C10 211.939 10.4214 210.922 11.1716 210.172C11.9217 209.421 12.9391 209 14 209V207C14 206.735 14.1054 206.48 14.2929 206.293C14.4804 206.105 14.7348 206 15 206C15.2652 206 15.5196 206.105 15.7071 206.293C15.8946 206.48 16 206.735 16 207V209.555C16.3726 209.781 16.7062 210.066 16.988 210.399V214H10.141Z" fill="#669248"/>
<path fill-rule="evenodd" clip-rule="evenodd" d="M17 213V214.937H11.316C11.0386 214.368 10.924 213.733 10.9849 213.103C11.0458 212.472 11.2798 211.871 11.661 211.365C12.0423 210.86 12.5559 210.469 13.1452 210.237C13.7345 210.005 14.3764 209.941 15 210.051V207C15 206.735 15.1054 206.48 15.2929 206.293C15.4804 206.105 15.7348 206 16 206C16.2652 206 16.5196 206.105 16.7071 206.293C16.8946 206.48 17 206.735 17 207V213Z" fill="#F3C4B7"/>
<path fill-rule="evenodd" clip-rule="evenodd" d="M69.108 214C69.108 214 68.878 212.6 68.801 212.248H65.483C65.391 212.523 64.932 214 64.932 214H62.225L66.064 204.844C66.1594 204.572 66.3447 204.34 66.5894 204.187C66.8341 204.035 67.1236 203.97 67.41 204.004H69.41L71.51 214.004H69.11L69.108 214ZM67.777 207.559L67.593 206.705C67.471 207.086 67.241 207.682 67.257 207.666C67.257 207.666 66.431 209.878 66.232 210.458H68.373C68.266 209.955 67.777 207.559 67.777 207.559V207.559ZM62.209 206.309C61.6043 206.036 60.9451 205.905 60.282 205.927C59.257 205.927 58.798 206.354 58.782 206.781C58.782 207.255 59.333 207.559 60.25 208.017C61.734 208.717 62.422 209.589 62.407 210.733C62.392 212.792 60.633 214.133 57.907 214.133C56.9238 214.136 55.9488 213.955 55.032 213.6L55.383 211.357L55.735 211.525C56.4861 211.894 57.3151 212.078 58.152 212.059C58.4874 212.124 58.8352 212.06 59.1249 211.879C59.4146 211.697 59.6244 211.412 59.712 211.082C59.712 210.64 59.376 210.319 58.366 209.831C57.387 209.359 56.087 208.566 56.102 207.131C56.118 205.194 57.907 203.831 60.462 203.831C61.2554 203.827 62.0431 203.966 62.787 204.242L62.435 206.409L62.209 206.309ZM50.829 214L52.451 204H55.036L53.415 214H50.829ZM44.604 214L42.299 205.329C42.221 205.283 42.138 205.241 42.057 205.197H43.6L44.17 205.597L45.216 207.197L45.66 208.423L45.86 209.436L46.136 210.809L48.673 204H51.411L47.342 214H44.6H44.604Z" fill="#1470B0"/>
<path fill-rule="evenodd" clip-rule="evenodd" d="M43.435 206.494C43.1237 206.25 42.7887 206.038 42.435 205.861L42.288 205.307C41.5577 204.877 40.7776 204.538 39.965 204.298V203.988H43.936C44.1741 203.989 44.4047 204.071 44.5894 204.221C44.7742 204.371 44.9018 204.58 44.951 204.813L45.811 209.22C45.1778 208.184 44.3746 207.263 43.435 206.494Z" fill="#FFB927"/>
<path d="M286.781 216C291.078 216 294.562 212.418 294.562 208C294.562 203.582 291.078 200 286.781 200C282.484 200 279 203.582 279 208C279 212.418 282.484 216 286.781 216Z" fill="#EC0020"/>
<path d="M299.219 215.781C303.516 215.781 307 212.297 307 208C307 203.703 303.516 200.219 299.219 200.219C294.922 200.219 291.438 203.703 291.438 208C291.438 212.297 294.922 215.781 299.219 215.781Z" fill="#FE9A0C"/>
<path fill-rule="evenodd" clip-rule="evenodd" d="M284.412 209.968H283.724L284.353 206.73H284.342L283.056 209.968H282.219L282.2 206.73H282.189L281.678 209.968H280.99L281.744 205.991H282.819L282.866 209.091H282.878L284.097 205.991H285.161L284.412 209.968V209.968ZM289.592 207.748C289.287 207.691 288.977 207.671 288.668 207.686C288.295 207.728 288.214 207.832 288.19 207.952C288.105 208.398 289.802 207.97 289.596 209.002C289.529 209.3 289.358 209.564 289.114 209.747C288.87 209.93 288.569 210.021 288.264 210.002C287.892 210.028 287.518 209.981 287.164 209.865L287.264 209.32C287.61 209.389 287.963 209.418 288.316 209.408C288.428 209.42 288.542 209.4 288.643 209.349C288.744 209.299 288.829 209.22 288.887 209.123C288.981 208.652 287.287 209.006 287.493 207.957C287.56 207.689 287.724 207.455 287.954 207.302C288.184 207.149 288.463 207.087 288.736 207.128C289.056 207.132 289.374 207.176 289.683 207.261L289.59 207.752L289.592 207.748ZM289.981 207.616L290.233 206.566H290.92L290.773 207.092H291.2L291.1 207.616H290.673L290.373 209.135C290.342 209.301 290.334 209.364 290.614 209.364C290.662 209.364 290.71 209.359 290.758 209.351L290.658 209.917C290.55 209.917 290.425 209.992 290.317 209.992H290.231C289.637 209.992 289.579 209.68 289.653 209.314L289.987 207.614L289.981 207.616ZM291.638 208.828C291.612 208.902 291.605 208.982 291.618 209.059C291.631 209.137 291.665 209.209 291.714 209.27C291.764 209.331 291.828 209.378 291.902 209.407C291.975 209.436 292.054 209.445 292.132 209.434C292.556 209.462 292.978 209.35 293.332 209.114L293.223 209.639C292.863 209.881 292.432 209.994 292 209.959C291.266 209.959 290.773 209.58 291 208.432C291.049 208.053 291.229 207.703 291.509 207.444C291.79 207.185 292.153 207.032 292.534 207.013C293.05 207.013 293.711 207.422 293.454 208.699L293.431 208.828H291.631H291.638ZM292.819 208.283C292.843 208.212 292.851 208.137 292.842 208.063C292.833 207.988 292.808 207.917 292.768 207.854C292.729 207.79 292.675 207.737 292.612 207.696C292.549 207.656 292.478 207.63 292.404 207.621C292.238 207.646 292.085 207.724 291.968 207.843C291.85 207.963 291.774 208.117 291.752 208.283H292.819ZM293.887 207.142H294.544L294.444 207.571H294.455C294.533 207.414 294.65 207.281 294.795 207.184C294.94 207.086 295.109 207.029 295.283 207.017C295.329 207.017 295.43 207.038 295.473 207.043L295.22 207.771C295.171 207.763 295.122 207.76 295.073 207.762C294.883 207.751 294.697 207.815 294.554 207.939C294.41 208.064 294.321 208.239 294.304 208.428L294.016 209.994H293.329L293.884 207.142H293.887ZM298.039 206.842C297.78 206.691 297.475 206.64 297.181 206.7C296.868 206.755 296.584 206.916 296.377 207.157C296.17 207.397 296.052 207.702 296.043 208.019C295.99 208.14 295.961 208.27 295.958 208.401C295.955 208.533 295.978 208.665 296.026 208.787C296.074 208.91 296.146 209.022 296.237 209.117C296.329 209.212 296.438 209.288 296.559 209.341C296.754 209.387 296.955 209.392 297.152 209.358C297.349 209.324 297.537 209.25 297.705 209.141L297.519 209.827C297.373 209.925 297.208 209.991 297.034 210.02C296.861 210.049 296.683 210.042 296.513 209.998C295.573 209.94 295.033 209.316 295.293 208.01C295.331 207.489 295.557 207 295.928 206.634C296.3 206.267 296.792 206.048 297.313 206.017C297.471 206.015 297.628 206.046 297.774 206.106C297.92 206.167 298.053 206.257 298.163 206.37L298.039 206.845V206.842ZM304.239 209.971H303.567L303.637 209.541H303.629C303.533 209.674 303.406 209.781 303.26 209.855C303.113 209.928 302.951 209.965 302.787 209.962C302.01 209.962 301.831 209.229 301.987 208.462C302.01 208.098 302.16 207.754 302.411 207.49C302.663 207.225 303 207.058 303.362 207.018C303.506 207.006 303.65 207.042 303.771 207.122C303.892 207.201 303.983 207.318 304.029 207.455H304.041L304.3 206H304.988L304.238 209.968L304.239 209.971ZM303.074 209.359C303.276 209.337 303.463 209.245 303.604 209.099C303.744 208.952 303.829 208.761 303.843 208.559C303.932 208.11 303.901 207.659 303.431 207.659C303.224 207.691 303.035 207.795 302.898 207.952C302.76 208.11 302.682 208.311 302.678 208.52C302.612 208.849 302.635 209.365 303.078 209.365L303.074 209.359ZM300.091 209.296C300.091 209.296 300.025 209.596 300.01 209.745L299.975 209.997H299.365C299.351 209.851 299.351 209.704 299.365 209.558C299.246 209.684 299.103 209.784 298.944 209.853C298.785 209.921 298.614 209.957 298.441 209.958C298.339 209.969 298.235 209.953 298.14 209.913C298.046 209.872 297.963 209.809 297.899 209.727C297.836 209.646 297.795 209.55 297.779 209.449C297.763 209.347 297.773 209.243 297.808 209.146C297.844 208.914 297.956 208.701 298.126 208.539C298.296 208.377 298.515 208.276 298.748 208.252L299.385 208.152C299.497 208.135 299.637 208.214 299.672 208.052C299.681 208 299.678 207.946 299.661 207.895C299.645 207.844 299.616 207.798 299.578 207.761C299.54 207.724 299.493 207.697 299.441 207.683C299.39 207.668 299.336 207.667 299.284 207.678C298.924 207.665 298.565 207.727 298.231 207.861L298.387 207.316C298.732 207.162 299.111 207.099 299.487 207.133C299.602 207.107 299.721 207.108 299.834 207.138C299.948 207.167 300.053 207.223 300.141 207.302C300.228 207.38 300.296 207.478 300.337 207.588C300.379 207.698 300.394 207.816 300.38 207.933L300.096 209.29L300.091 209.296ZM299.552 208.526C299.399 208.613 299.228 208.664 299.052 208.676C298.926 208.673 298.802 208.713 298.703 208.79C298.603 208.868 298.533 208.977 298.505 209.1C298.489 209.139 298.484 209.182 298.49 209.224C298.495 209.265 298.512 209.305 298.537 209.339C298.562 209.373 298.596 209.399 298.634 209.417C298.673 209.434 298.715 209.441 298.757 209.437C298.922 209.438 299.082 209.384 299.213 209.284C299.344 209.184 299.438 209.043 299.48 208.884L299.55 208.526H299.552ZM300.728 207.145H301.385L301.285 207.627H301.3C301.377 207.47 301.494 207.337 301.639 207.24C301.785 207.143 301.953 207.085 302.127 207.074C302.174 207.074 302.275 207.095 302.318 207.099L302.065 207.827C302.016 207.819 301.967 207.816 301.918 207.818C301.827 207.808 301.735 207.815 301.647 207.84C301.56 207.866 301.478 207.908 301.406 207.965C301.335 208.022 301.275 208.092 301.231 208.172C301.187 208.252 301.159 208.34 301.149 208.431L300.861 209.997H300.174L300.729 207.145H300.728ZM287.012 209.296C287.012 209.296 286.946 209.596 286.93 209.745L286.895 209.998H286.285C286.272 209.852 286.272 209.704 286.285 209.558C286.169 209.69 286.027 209.797 285.868 209.873C285.709 209.948 285.537 209.99 285.361 209.997C285.256 210.003 285.152 209.983 285.057 209.939C284.962 209.895 284.88 209.827 284.817 209.744C284.754 209.66 284.713 209.562 284.698 209.458C284.682 209.354 284.693 209.249 284.728 209.15C284.764 208.918 284.876 208.705 285.046 208.543C285.216 208.381 285.435 208.281 285.668 208.256L286.305 208.156C286.37 208.155 286.434 208.134 286.486 208.094C286.537 208.054 286.575 207.998 286.592 207.935C286.651 207.624 286.379 207.672 286.204 207.668C285.844 207.656 285.486 207.718 285.152 207.851L285.307 207.306C285.651 207.153 286.027 207.09 286.402 207.123C286.517 207.097 286.636 207.098 286.749 207.128C286.863 207.157 286.968 207.213 287.056 207.292C287.143 207.37 287.211 207.468 287.252 207.578C287.294 207.688 287.309 207.806 287.295 207.923L287.012 209.297V209.296ZM286.472 208.526C286.319 208.613 286.148 208.664 285.972 208.676C285.846 208.673 285.722 208.713 285.622 208.79C285.522 208.867 285.452 208.977 285.424 209.1C285.408 209.139 285.403 209.182 285.409 209.224C285.414 209.266 285.431 209.306 285.456 209.339C285.481 209.373 285.515 209.4 285.554 209.417C285.592 209.434 285.635 209.441 285.677 209.437C285.842 209.438 286.002 209.384 286.133 209.284C286.263 209.184 286.357 209.043 286.399 208.884L286.469 208.526H286.472Z" fill="white"/>
<path fill-rule="evenodd" clip-rule="evenodd" d="M284.412 209.968H283.724L284.353 206.73H284.342L283.056 209.968H282.219L282.2 206.73H282.189L281.678 209.968H280.99L281.744 205.991H282.819L282.866 209.091H282.878L284.097 205.991H285.161L284.412 209.968V209.968ZM289.592 207.748C289.287 207.691 288.977 207.671 288.668 207.686C288.295 207.728 288.214 207.832 288.19 207.952C288.105 208.398 289.802 207.97 289.596 209.002C289.529 209.3 289.358 209.564 289.114 209.747C288.87 209.93 288.569 210.021 288.264 210.002C287.892 210.028 287.518 209.981 287.164 209.865L287.264 209.32C287.61 209.389 287.963 209.418 288.316 209.408C288.428 209.42 288.542 209.4 288.643 209.349C288.744 209.299 288.829 209.22 288.887 209.123C288.981 208.652 287.287 209.006 287.493 207.957C287.56 207.689 287.724 207.455 287.954 207.302C288.184 207.149 288.463 207.087 288.736 207.128C289.056 207.132 289.374 207.176 289.683 207.261L289.59 207.752L289.592 207.748ZM289.981 207.616L290.233 206.566H290.92L290.773 207.092H291.2L291.1 207.616H290.673L290.373 209.135C290.342 209.301 290.334 209.364 290.614 209.364C290.662 209.364 290.71 209.359 290.758 209.351L290.658 209.917C290.55 209.917 290.425 209.992 290.317 209.992H290.231C289.637 209.992 289.579 209.68 289.653 209.314L289.987 207.614L289.981 207.616ZM291.638 208.828C291.612 208.902 291.605 208.982 291.618 209.059C291.631 209.137 291.665 209.209 291.714 209.27C291.764 209.331 291.828 209.378 291.902 209.407C291.975 209.436 292.054 209.445 292.132 209.434C292.556 209.462 292.978 209.35 293.332 209.114L293.223 209.639C292.863 209.881 292.432 209.994 292 209.959C291.266 209.959 290.773 209.58 291 208.432C291.049 208.053 291.229 207.703 291.509 207.444C291.79 207.185 292.153 207.032 292.534 207.013C293.05 207.013 293.711 207.422 293.454 208.699L293.431 208.828H291.631H291.638ZM292.819 208.283C292.843 208.212 292.851 208.137 292.842 208.063C292.833 207.988 292.808 207.917 292.768 207.854C292.729 207.79 292.675 207.737 292.612 207.696C292.549 207.656 292.478 207.63 292.404 207.621C292.238 207.646 292.085 207.724 291.968 207.843C291.85 207.963 291.774 208.117 291.752 208.283H292.819ZM293.887 207.142H294.544L294.444 207.571H294.455C294.533 207.414 294.65 207.281 294.795 207.184C294.94 207.086 295.109 207.029 295.283 207.017C295.329 207.017 295.43 207.038 295.473 207.043L295.22 207.771C295.171 207.763 295.122 207.76 295.073 207.762C294.883 207.751 294.697 207.815 294.554 207.939C294.41 208.064 294.321 208.239 294.304 208.428L294.016 209.994H293.329L293.884 207.142H293.887ZM298.039 206.842C297.78 206.691 297.475 206.64 297.181 206.7C296.868 206.755 296.584 206.916 296.377 207.157C296.17 207.397 296.052 207.702 296.043 208.019C295.99 208.14 295.961 208.27 295.958 208.401C295.955 208.533 295.978 208.665 296.026 208.787C296.074 208.91 296.146 209.022 296.237 209.117C296.329 209.212 296.438 209.288 296.559 209.341C296.754 209.387 296.955 209.392 297.152 209.358C297.349 209.324 297.537 209.25 297.705 209.141L297.519 209.827C297.373 209.925 297.208 209.991 297.034 210.02C296.861 210.049 296.683 210.042 296.513 209.998C295.573 209.94 295.033 209.316 295.293 208.01C295.331 207.489 295.557 207 295.928 206.634C296.3 206.267 296.792 206.048 297.313 206.017C297.471 206.015 297.628 206.046 297.774 206.106C297.92 206.167 298.053 206.257 298.163 206.37L298.039 206.845V206.842ZM304.239 209.971H303.567L303.637 209.541H303.629C303.533 209.674 303.406 209.781 303.26 209.855C303.113 209.928 302.951 209.965 302.787 209.962C302.01 209.962 301.831 209.229 301.987 208.462C302.01 208.098 302.16 207.754 302.411 207.49C302.663 207.225 303 207.058 303.362 207.018C303.506 207.006 303.65 207.042 303.771 207.122C303.892 207.201 303.983 207.318 304.029 207.455H304.041L304.3 206H304.988L304.238 209.968L304.239 209.971ZM303.074 209.359C303.276 209.337 303.463 209.245 303.604 209.099C303.744 208.952 303.829 208.761 303.843 208.559C303.932 208.11 303.901 207.659 303.431 207.659C303.224 207.691 303.035 207.795 302.898 207.952C302.76 208.11 302.682 208.311 302.678 208.52C302.612 208.849 302.635 209.365 303.078 209.365L303.074 209.359ZM300.091 209.296C300.091 209.296 300.025 209.596 300.01 209.745L299.975 209.997H299.365C299.351 209.851 299.351 209.704 299.365 209.558C299.246 209.684 299.103 209.784 298.944 209.853C298.785 209.921 298.614 209.957 298.441 209.958C298.339 209.969 298.235 209.953 298.14 209.913C298.046 209.872 297.963 209.809 297.899 209.727C297.836 209.646 297.795 209.55 297.779 209.449C297.763 209.347 297.773 209.243 297.808 209.146C297.844 208.914 297.956 208.701 298.126 208.539C298.296 208.377 298.515 208.276 298.748 208.252L299.385 208.152C299.497 208.135 299.637 208.214 299.672 208.052C299.681 208 299.678 207.946 299.661 207.895C299.645 207.844 299.616 207.798 299.578 207.761C299.54 207.724 299.493 207.697 299.441 207.683C299.39 207.668 299.336 207.667 299.284 207.678C298.924 207.665 298.565 207.727 298.231 207.861L298.387 207.316C298.732 207.162 299.111 207.099 299.487 207.133C299.602 207.107 299.721 207.108 299.834 207.138C299.948 207.167 300.053 207.223 300.141 207.302C300.228 207.38 300.296 207.478 300.337 207.588C300.379 207.698 300.394 207.816 300.38 207.933L300.096 209.29L300.091 209.296ZM299.552 208.526C299.399 208.613 299.228 208.664 299.052 208.676C298.926 208.673 298.802 208.713 298.703 208.79C298.603 208.868 298.533 208.977 298.505 209.1C298.489 209.139 298.484 209.182 298.49 209.224C298.495 209.265 298.512 209.305 298.537 209.339C298.562 209.373 298.596 209.399 298.634 209.417C298.673 209.434 298.715 209.441 298.757 209.437C298.922 209.438 299.082 209.384 299.213 209.284C299.344 209.184 299.438 209.043 299.48 208.884L299.55 208.526H299.552ZM300.728 207.145H301.385L301.285 207.627H301.3C301.377 207.47 301.494 207.337 301.639 207.24C301.785 207.143 301.953 207.085 302.127 207.074C302.174 207.074 302.275 207.095 302.318 207.099L302.065 207.827C302.016 207.819 301.967 207.816 301.918 207.818C301.827 207.808 301.735 207.815 301.647 207.84C301.56 207.866 301.478 207.908 301.406 207.965C301.335 208.022 301.275 208.092 301.231 208.172C301.187 208.252 301.159 208.34 301.149 208.431L300.861 209.997H300.174L300.729 207.145H300.728ZM287.012 209.296C287.012 209.296 286.946 209.596 286.93 209.745L286.895 209.998H286.285C286.272 209.852 286.272 209.704 286.285 209.558C286.169 209.69 286.027 209.797 285.868 209.873C285.709 209.948 285.537 209.99 285.361 209.997C285.256 210.003 285.152 209.983 285.057 209.939C284.962 209.895 284.88 209.827 284.817 209.744C284.754 209.66 284.713 209.562 284.698 209.458C284.682 209.354 284.693 209.249 284.728 209.15C284.764 208.918 284.876 208.705 285.046 208.543C285.216 208.381 285.435 208.281 285.668 208.256L286.305 208.156C286.37 208.155 286.434 208.134 286.486 208.094C286.537 208.054 286.575 207.998 286.592 207.935C286.651 207.624 286.379 207.672 286.204 207.668C285.844 207.656 285.486 207.718 285.152 207.851L285.307 207.306C285.651 207.153 286.027 207.09 286.402 207.123C286.517 207.097 286.636 207.098 286.749 207.128C286.863 207.157 286.968 207.213 287.056 207.292C287.143 207.37 287.211 207.468 287.252 207.578C287.294 207.688 287.309 207.806 287.295 207.923L287.012 209.297V209.296ZM286.472 208.526C286.319 208.613 286.148 208.664 285.972 208.676C285.846 208.673 285.722 208.713 285.622 208.79C285.522 208.867 285.452 208.977 285.424 209.1C285.408 209.139 285.403 209.182 285.409 209.224C285.414 209.266 285.431 209.306 285.456 209.339C285.481 209.373 285.515 209.4 285.554 209.417C285.592 209.434 285.635 209.441 285.677 209.437C285.842 209.438 286.002 209.384 286.133 209.284C286.263 209.184 286.357 209.043 286.399 208.884L286.469 208.526H286.472Z" fill="white"/>
<path d="M335 216C339.418 216 343 212.418 343 208C343 203.582 339.418 200 335 200C330.582 200 327 203.582 327 208C327 212.418 330.582 216 335 216Z" fill="#E70025"/>
<path d="M343 216C347.418 216 351 212.418 351 208C351 203.582 347.418 200 343 200C338.582 200 335 203.582 335 208C335 212.418 338.582 216 343 216Z" fill="#F59E2D"/>
<path fill-rule="evenodd" clip-rule="evenodd" d="M339 214.921C337.784 214.22 336.774 213.212 336.072 211.997C335.37 210.782 335 209.403 335 208C335 206.597 335.37 205.218 336.072 204.003C336.774 202.788 337.784 201.78 339 201.079C340.216 201.78 341.226 202.788 341.928 204.003C342.63 205.218 343 206.597 343 208C343 209.403 342.63 210.782 341.928 211.997C341.226 213.212 340.216 214.22 339 214.921V214.921Z" fill="#FC5D1D"/>
<path opacity="0.5" fill-rule="evenodd" clip-rule="evenodd" d="M16 139V135.5C16 135.102 16.158 134.721 16.4393 134.439C16.7207 134.158 17.1022 134 17.5 134C17.8978 134 18.2793 134.158 18.5607 134.439C18.842 134.721 19 135.102 19 135.5V139H16ZM12 139V133.5C12 133.102 12.158 132.721 12.4393 132.439C12.7207 132.158 13.1022 132 13.5 132C13.8978 132 14.2793 132.158 14.5607 132.439C14.842 132.721 15 133.102 15 133.5V139H12ZM8 139V135.483C8.00027 135.09 8.15674 134.712 8.43501 134.434C8.71329 134.156 9.09059 134 9.48399 134H9.51601C9.90933 134 10.2865 134.157 10.5647 134.435C10.8429 134.713 10.9995 135.09 11 135.483V139H8ZM4 139V138.5C4 138.102 4.15804 137.721 4.43935 137.439C4.72065 137.158 5.10218 137 5.5 137C5.89782 137 6.27935 137.158 6.56065 137.439C6.84196 137.721 7 138.102 7 138.5V139H4Z" fill="white"/>
<path fill-rule="evenodd" clip-rule="evenodd" d="M21.9 152C21.9624 151.841 21.9963 151.671 22 151.5V143.5C22 143.102 21.842 142.721 21.5607 142.439C21.2793 142.158 20.8978 142 20.5 142C20.1022 142 19.7207 142.158 19.4393 142.439C19.158 142.721 19 143.102 19 143.5V148.115C18.6716 148.042 18.3365 148.003 18 147.999C16.8473 147.999 15.73 148.397 14.8371 149.126C13.9442 149.855 13.3305 150.87 13.1 151.999H0V139H25V152H21.9ZM7.5 142C6.80777 142 6.13108 142.205 5.55551 142.59C4.97994 142.974 4.53133 143.521 4.26642 144.161C4.00151 144.8 3.9322 145.504 4.06725 146.183C4.20229 146.862 4.53565 147.485 5.02513 147.975C5.51461 148.464 6.13825 148.798 6.81718 148.933C7.49612 149.068 8.19984 148.998 8.83939 148.734C9.47893 148.469 10.0256 148.02 10.4101 147.444C10.7947 146.869 11 146.192 11 145.5C11 144.572 10.6312 143.682 9.97487 143.025C9.31849 142.369 8.42826 142 7.5 142Z" fill="white"/>
<path opacity="0.7" d="M7.5 149C9.433 149 11 147.433 11 145.5C11 143.567 9.433 142 7.5 142C5.567 142 4 143.567 4 145.5C4 147.433 5.567 149 7.5 149Z" fill="white"/>
<path opacity="0.5" fill-rule="evenodd" clip-rule="evenodd" d="M21.535 152.58C21.3902 152.997 21.2113 153.401 21 153.789V154H20.869C20.1776 155.213 19.1783 156.221 17.9722 156.923C16.766 157.626 15.3958 157.997 14 158H12C10.228 157.998 8.50675 157.408 7.10645 156.322C5.70614 155.236 4.70601 153.716 4.263 152H13.1C13.3305 150.871 13.9442 149.856 14.8371 149.127C15.73 148.398 16.8473 148 18 148C18.3365 148.004 18.6716 148.043 19 148.116V143.5C19 143.102 19.158 142.721 19.4393 142.439C19.7207 142.158 20.1022 142 20.5 142C20.8978 142 21.2793 142.158 21.5607 142.439C21.842 142.721 22 143.102 22 143.5V151.5C21.9996 151.702 21.9581 151.902 21.8782 152.088C21.7983 152.273 21.6815 152.441 21.535 152.58V152.58Z" fill="white"/>
<path fill-rule="evenodd" clip-rule="evenodd" d="M104.631 153.993C104.631 153.993 104.24 151.607 104.109 151.009H98.456C98.3 151.477 97.519 153.993 97.519 153.993H92.907L99.447 138.398C99.6094 137.934 99.925 137.54 100.342 137.28C100.758 137.02 101.251 136.91 101.739 136.968H105.152L108.721 153.993H104.631ZM102.364 143.023L102.051 141.567C101.843 142.217 101.451 143.231 101.478 143.205C101.478 143.205 100.071 146.973 99.733 147.96H103.38C103.2 147.1 102.364 143.023 102.364 143.023ZM92.881 140.893C91.8512 140.428 90.7283 140.205 89.599 140.243C87.853 140.243 87.071 140.97 87.045 141.698C87.045 142.504 87.984 143.023 89.545 143.798C92.073 144.993 93.245 146.474 93.219 148.422C93.193 151.93 90.197 154.216 85.559 154.216C83.8833 154.222 82.2214 153.914 80.659 153.308L81.259 149.488L81.859 149.774C83.1382 150.403 84.55 150.715 85.975 150.683C87.252 150.683 88.606 150.163 88.633 149.02C88.633 148.267 88.06 147.72 86.34 146.89C84.673 146.084 82.458 144.733 82.484 142.29C82.51 138.99 85.558 136.677 89.909 136.677C91.2604 136.669 92.6021 136.906 93.869 137.377L93.269 141.068L92.881 140.893ZM73.499 153.993L76.26 136.968H80.66L77.9 153.993H73.5H73.499ZM62.899 153.993L59.21 140.13C59.8091 140.432 60.3766 140.793 60.904 141.208C62.5067 142.518 63.8775 144.087 64.959 145.852L65.032 146.219L65.501 148.558L69.825 136.968H74.489L67.559 153.993H62.9H62.899ZM64.699 144.493L64.881 145.423L64.699 144.493Z" fill="white"/>
<path opacity="0.5" fill-rule="evenodd" clip-rule="evenodd" d="M60.9 141.208C60.3726 140.793 59.8051 140.432 59.206 140.13L58.955 139.187C57.7094 138.473 56.3812 137.913 55 137.521V136.994H61.764C62.1687 136.995 62.5609 137.134 62.8754 137.389C63.1899 137.644 63.4079 137.998 63.493 138.394L64.957 145.848C63.8745 144.085 62.503 142.516 60.9 141.208V141.208Z" fill="white"/>
<path fill-rule="evenodd" clip-rule="evenodd" d="M367 145.5C367 147.438 367.452 149.35 368.32 151.083C369.188 152.815 370.448 154.322 372 155.483C370.144 156.881 367.935 157.735 365.621 157.948C363.307 158.16 360.98 157.724 358.9 156.687C356.82 155.65 355.071 154.054 353.848 152.078C352.625 150.102 351.977 147.824 351.977 145.5C351.977 143.176 352.625 140.898 353.848 138.922C355.071 136.946 356.82 135.35 358.9 134.313C360.98 133.276 363.307 132.84 365.621 133.052C367.935 133.265 370.144 134.119 372 135.517C370.448 136.678 369.188 138.185 368.32 139.917C367.452 141.65 367 143.562 367 145.5V145.5Z" fill="white"/>
<path opacity="0.5" fill-rule="evenodd" clip-rule="evenodd" d="M379.5 158C376.793 158 374.159 157.116 372 155.483C373.552 154.322 374.812 152.816 375.68 151.083C376.548 149.35 377 147.438 377 145.5C377 143.562 376.548 141.65 375.68 139.917C374.812 138.184 373.552 136.678 372 135.517C373.583 134.328 375.427 133.531 377.378 133.194C379.329 132.857 381.333 132.989 383.224 133.578C385.114 134.168 386.838 135.198 388.252 136.585C389.666 137.971 390.73 139.674 391.357 141.552C391.983 143.431 392.154 145.432 391.856 147.389C391.557 149.347 390.798 151.206 389.64 152.812C388.482 154.419 386.958 155.727 385.195 156.629C383.432 157.531 381.48 158.001 379.5 158V158Z" fill="white"/>
<path opacity="0.75" fill-rule="evenodd" clip-rule="evenodd" d="M367 145.5C367 143.562 367.452 141.65 368.32 139.917C369.188 138.185 370.448 136.678 372 135.517C373.552 136.678 374.812 138.184 375.68 139.917C376.548 141.65 377 143.562 377 145.5C377 147.438 376.548 149.35 375.68 151.083C374.812 152.816 373.552 154.322 372 155.483C370.448 154.322 369.188 152.815 368.32 151.083C367.452 149.35 367 147.438 367 145.5V145.5Z" fill="white"/>
<path opacity="0.4" fill-rule="evenodd" clip-rule="evenodd" d="M16 73V69.5C16 69.1022 16.158 68.7207 16.4393 68.4393C16.7207 68.158 17.1022 68 17.5 68C17.8978 68 18.2793 68.158 18.5607 68.4393C18.842 68.7207 19 69.1022 19 69.5V73H16ZM12 73V67.5C12 67.1022 12.158 66.7207 12.4393 66.4393C12.7207 66.158 13.1022 66 13.5 66C13.8978 66 14.2793 66.158 14.5607 66.4393C14.842 66.7207 15 67.1022 15 67.5V73H12ZM8 73V69.483C8.00027 69.0896 8.15674 68.7124 8.43501 68.4343C8.71329 68.1562 9.09059 68 9.48399 68H9.51601C9.90933 68.0003 10.2865 68.1566 10.5647 68.4346C10.8429 68.7126 10.9995 69.0897 11 69.483V73H8ZM4 73V72.5C4 72.1022 4.15804 71.7207 4.43935 71.4393C4.72065 71.158 5.10218 71 5.5 71C5.89782 71 6.27935 71.158 6.56065 71.4393C6.84196 71.7207 7 72.1022 7 72.5V73H4Z" fill="black"/>
<path fill-rule="evenodd" clip-rule="evenodd" d="M21.9 86C21.9624 85.8405 21.9963 85.6712 22 85.5V77.5C22 77.1022 21.842 76.7207 21.5607 76.4393C21.2793 76.158 20.8978 76 20.5 76C20.1022 76 19.7207 76.158 19.4393 76.4393C19.158 76.7207 19 77.1022 19 77.5V82.116C18.6716 82.0427 18.3365 82.0038 18 82C16.8473 81.9998 15.73 82.3978 14.8371 83.1267C13.9442 83.8556 13.3305 84.8706 13.1 86H0V73H25V86H21.9ZM7.5 76C6.80777 76 6.13108 76.2053 5.55551 76.5899C4.97994 76.9744 4.53133 77.5211 4.26642 78.1606C4.00151 78.8002 3.9322 79.5039 4.06725 80.1828C4.20229 80.8617 4.53565 81.4854 5.02513 81.9749C5.51461 82.4644 6.13825 82.7977 6.81718 82.9328C7.49612 83.0678 8.19984 82.9985 8.83939 82.7336C9.47893 82.4687 10.0256 82.0201 10.4101 81.4445C10.7947 80.8689 11 80.1922 11 79.5C11 78.5717 10.6312 77.6815 9.97487 77.0251C9.31849 76.3688 8.42826 76 7.5 76Z" fill="black"/>
<path opacity="0.5" d="M7.5 83C9.433 83 11 81.433 11 79.5C11 77.567 9.433 76 7.5 76C5.567 76 4 77.567 4 79.5C4 81.433 5.567 83 7.5 83Z" fill="black"/>
<path opacity="0.4" fill-rule="evenodd" clip-rule="evenodd" d="M21.535 86.58C21.39 86.9969 21.2111 87.4013 21 87.789V88H20.869C20.1776 89.2125 19.1783 90.2209 17.9722 90.9233C16.766 91.6257 15.3958 91.9971 14 92H12C10.228 91.998 8.50675 91.4077 7.10645 90.3218C5.70614 89.2359 4.70601 87.7158 4.263 86H13.1C13.3305 84.8706 13.9442 83.8556 14.8371 83.1267C15.73 82.3978 16.8473 81.9998 18 82C18.3365 82.0038 18.6716 82.0427 19 82.116V77.5C19 77.1022 19.158 76.7207 19.4393 76.4393C19.7207 76.158 20.1022 76 20.5 76C20.8978 76 21.2793 76.158 21.5607 76.4393C21.842 76.7207 22 77.1022 22 77.5V85.5C21.9996 85.7021 21.9582 85.9021 21.8783 86.0877C21.7984 86.2734 21.6816 86.4408 21.535 86.58V86.58Z" fill="black"/>
<path fill-rule="evenodd" clip-rule="evenodd" d="M104.631 87.993C104.631 87.993 104.24 85.607 104.109 85.009H98.456C98.3 85.477 97.519 87.993 97.519 87.993H92.907L99.447 72.398C99.6094 71.9345 99.925 71.5402 100.342 71.2802C100.758 71.0202 101.251 70.9101 101.739 70.968H105.152L108.721 87.993H104.631ZM102.364 77.023L102.051 75.567C101.843 76.217 101.451 77.231 101.478 77.205C101.478 77.205 100.071 80.973 99.733 81.96H103.38C103.2 81.1 102.364 77.023 102.364 77.023ZM92.881 74.893C91.8512 74.4278 90.7283 74.2054 89.599 74.243C87.853 74.243 87.071 74.97 87.045 75.698C87.045 76.504 87.984 77.023 89.545 77.798C92.073 78.993 93.245 80.474 93.219 82.422C93.193 85.93 90.197 88.216 85.559 88.216C83.8833 88.2216 82.2214 87.9136 80.659 87.308L81.259 83.488L81.859 83.774C83.1382 84.4028 84.55 84.7145 85.975 84.683C87.252 84.683 88.606 84.163 88.633 83.02C88.633 82.267 88.06 81.72 86.34 80.89C84.673 80.084 82.458 78.733 82.484 76.29C82.51 72.99 85.558 70.677 89.909 70.677C91.2604 70.6693 92.6021 70.9065 93.869 71.377L93.269 75.068L92.881 74.893ZM73.499 87.993L76.26 70.968H80.66L77.9 87.993H73.5H73.499ZM62.899 87.993L59.21 74.13C59.8091 74.4321 60.3766 74.7932 60.904 75.208C62.5067 76.5175 63.8775 78.0875 64.959 79.852L65.032 80.219L65.501 82.558L69.825 70.968H74.489L67.559 87.993H62.9H62.899ZM64.699 78.493L64.881 79.423L64.699 78.493Z" fill="black"/>
<path opacity="0.35" fill-rule="evenodd" clip-rule="evenodd" d="M60.9 75.208C60.3729 74.7928 59.8053 74.4317 59.206 74.13L58.955 73.187C57.7094 72.4727 56.3812 71.9133 55 71.521V70.994H61.764C62.1687 70.995 62.5609 71.1344 62.8754 71.3891C63.1899 71.6438 63.4079 71.9984 63.493 72.394L64.957 79.848C63.8745 78.0847 62.503 76.5162 60.9 75.208V75.208Z" fill="black"/>
<path fill-rule="evenodd" clip-rule="evenodd" d="M367 79.5C367 81.4382 367.452 83.3496 368.32 85.0825C369.188 86.8155 370.448 88.3222 372 89.483C370.144 90.8815 367.935 91.735 365.621 91.9476C363.307 92.1602 360.98 91.7236 358.9 90.6867C356.82 89.6498 355.071 88.0537 353.848 86.0777C352.625 84.1016 351.977 81.8238 351.977 79.5C351.977 77.1762 352.625 74.8984 353.848 72.9224C355.071 70.9463 356.82 69.3502 358.9 68.3133C360.98 67.2765 363.307 66.8398 365.621 67.0524C367.935 67.2651 370.144 68.1185 372 69.517C370.448 70.6778 369.188 72.1846 368.32 73.9175C367.452 75.6504 367 77.5619 367 79.5V79.5Z" fill="black"/>
<path opacity="0.3" fill-rule="evenodd" clip-rule="evenodd" d="M379.5 92C376.793 92.0002 374.159 91.1164 372 89.483C373.552 88.3223 374.812 86.8156 375.68 85.0826C376.548 83.3497 377 81.4382 377 79.5C377 77.5619 376.548 75.6504 375.68 73.9174C374.812 72.1845 373.552 70.6778 372 69.517C373.583 68.3275 375.427 67.5314 377.378 67.1943C379.329 66.8573 381.333 66.9889 383.224 67.5784C385.114 68.1679 386.838 69.1983 388.252 70.5847C389.666 71.9711 390.73 73.6738 391.357 75.5524C391.983 77.431 392.154 79.4316 391.856 81.3893C391.557 83.347 390.798 85.2057 389.64 86.8121C388.482 88.4186 386.958 89.7267 385.195 90.6287C383.432 91.5308 381.48 92.0008 379.5 92Z" fill="black"/>
<path opacity="0.65" fill-rule="evenodd" clip-rule="evenodd" d="M367 79.5C367 77.5619 367.452 75.6504 368.32 73.9175C369.188 72.1846 370.448 70.6779 372 69.517C373.552 70.6778 374.812 72.1845 375.68 73.9174C376.548 75.6504 377 77.5619 377 79.5C377 81.4382 376.548 83.3497 375.68 85.0826C374.812 86.8156 373.552 88.3223 372 89.483C370.448 88.3222 369.188 86.8155 368.32 85.0826C367.452 83.3496 367 81.4382 367 79.5V79.5Z" fill="black"/>
<path fill-rule="evenodd" clip-rule="evenodd" d="M17.5 13C17.1022 13 16.7207 12.842 16.4393 12.5607C16.158 12.2794 16 11.8978 16 11.5V3.5C16 3.10218 16.158 2.72064 16.4393 2.43934C16.7207 2.15803 17.1022 2 17.5 2C17.8978 2 18.2793 2.15803 18.5607 2.43934C18.842 2.72064 19 3.10218 19 3.5V11.5C19 11.8978 18.842 12.2794 18.5607 12.5607C18.2793 12.842 17.8978 13 17.5 13ZM13.5 11C13.1022 11 12.7207 10.842 12.4393 10.5607C12.158 10.2794 12 9.89782 12 9.5V1.5C12 1.10218 12.158 0.720643 12.4393 0.439339C12.7207 0.158034 13.1022 0 13.5 0C13.8978 0 14.2793 0.158034 14.5607 0.439339C14.842 0.720643 15 1.10218 15 1.5V9.5C15 9.89782 14.842 10.2794 14.5607 10.5607C14.2793 10.842 13.8978 11 13.5 11ZM9.51601 12H9.48399C9.09049 11.9997 8.7132 11.8433 8.43495 11.5651C8.15671 11.2868 8.00026 10.9095 8 10.516V3.484C8.00026 3.0905 8.15671 2.71319 8.43495 2.43494C8.7132 2.1567 9.09049 2.00026 9.48399 2H9.51601C9.90951 2.00026 10.2868 2.1567 10.565 2.43494C10.8433 2.71319 10.9997 3.0905 11 3.484V10.515C11 10.9087 10.8437 11.2862 10.5654 11.5647C10.2871 11.8432 9.90968 11.9997 9.51601 12ZM5.5 13C5.10218 13 4.72065 12.842 4.43935 12.5607C4.15804 12.2794 4 11.8978 4 11.5V6.5C4 6.10218 4.15804 5.72064 4.43935 5.43934C4.72065 5.15803 5.10218 5 5.5 5C5.89782 5 6.27935 5.15803 6.56065 5.43934C6.84196 5.72064 7 6.10218 7 6.5V11.5C7 11.8978 6.84196 12.2794 6.56065 12.5607C6.27935 12.842 5.89782 13 5.5 13Z" fill="#F3C4B7"/>
<path fill-rule="evenodd" clip-rule="evenodd" d="M16 7V6H19V7H16ZM15 7H12V6H15V7ZM8 6H11V7H8V6ZM4 6H7V7H4V6Z" fill="#E1AEA0"/>
<path fill-rule="evenodd" clip-rule="evenodd" d="M21.931 14C21.9748 14.3316 21.9978 14.6656 22 15V18C22 20.1217 21.1572 22.1566 19.6569 23.6569C18.1566 25.1571 16.1217 26 14 26H12C9.87827 26 7.84343 25.1571 6.34314 23.6569C4.84285 22.1566 4 20.1217 4 18V15C4.0022 14.6656 4.02524 14.3316 4.069 14H21.931V14Z" fill="#F3C4B7"/>
<path d="M25 7H0V20H25V7Z" fill="#76A158"/>
<path d="M25 7H0V8H25V7Z" fill="#87AE6B"/>
<path opacity="0.7" d="M7.5 17C9.433 17 11 15.433 11 13.5C11 11.567 9.433 10 7.5 10C5.567 10 4 11.567 4 13.5C4 15.433 5.567 17 7.5 17Z" fill="#9FD17D"/>
<path fill-rule="evenodd" clip-rule="evenodd" d="M25 20H0V19H12.237C12.5577 17.8504 13.2457 16.8372 14.1959 16.115C15.1461 15.3928 16.3065 15.0013 17.5 15C17.671 15 17.833 15.035 18 15.05V11.5C18 11.1022 18.158 10.7206 18.4393 10.4393C18.7207 10.158 19.1022 10 19.5 10C19.8978 10 20.2793 10.158 20.5607 10.4393C20.842 10.7206 21 11.1022 21 11.5V19H25V20Z" fill="#669248"/>
<path d="M22 11.5C22 10.6716 21.3284 10 20.5 10C19.6716 10 19 10.6716 19 11.5V19.5C19 20.3284 19.6716 21 20.5 21C21.3284 21 22 20.3284 22 19.5V11.5Z" fill="#F3C4B7"/>
<path fill-rule="evenodd" clip-rule="evenodd" d="M13.1 22C12.8921 21.0053 12.9933 19.9708 13.3902 19.0352C13.7871 18.0997 14.4607 17.308 15.3205 16.7663C16.1804 16.2246 17.1853 15.9589 18.2005 16.0048C19.2157 16.0507 20.1926 16.406 21 17.023V22H13.1Z" fill="#F3C4B7"/>
<path fill-rule="evenodd" clip-rule="evenodd" d="M104.631 21.993C104.631 21.993 104.24 19.607 104.109 19.009H98.456C98.3 19.477 97.519 21.993 97.519 21.993H92.907L99.447 6.39797C99.6094 5.93445 99.925 5.54017 100.342 5.28019C100.758 5.02021 101.251 4.91008 101.739 4.96796H105.152L108.721 21.993H104.631ZM102.364 11.023L102.051 9.56696C101.843 10.217 101.451 11.231 101.478 11.205C101.478 11.205 100.071 14.973 99.733 15.96H103.38C103.2 15.1 102.364 11.023 102.364 11.023ZM92.881 8.89296C91.8511 8.42814 90.7283 8.20576 89.599 8.24296C87.853 8.24296 87.071 8.97096 87.045 9.69796C87.045 10.504 87.984 11.023 89.545 11.803C92.073 13.003 93.245 14.479 93.219 16.427C93.193 19.935 90.197 22.221 85.559 22.221C83.8833 22.2265 82.2214 21.9186 80.659 21.313L81.259 17.493L81.859 17.779C83.1382 18.4077 84.55 18.7195 85.975 18.688C87.252 18.688 88.606 18.168 88.633 17.025C88.633 16.272 88.06 15.725 86.34 14.895C84.673 14.089 82.458 12.738 82.484 10.295C82.51 6.99496 85.558 4.68196 89.909 4.68196C91.2605 4.67389 92.6022 4.91107 93.869 5.38197L93.269 9.07196L92.881 8.89296ZM73.499 21.993L76.26 4.96796H80.66L77.9 21.993H73.5H73.499ZM62.899 21.993L58.973 7.22396C58.839 7.14596 58.698 7.07496 58.561 6.99996H61.189L62.16 7.68696L63.941 10.406L64.697 12.494L65.036 14.219L65.505 16.558L69.829 4.96796H74.493L67.563 21.993H62.9H62.899Z" fill="#1470B0"/>
<path fill-rule="evenodd" clip-rule="evenodd" d="M60.9 9.20795C60.3727 8.79335 59.8052 8.43255 59.206 8.13095L58.955 7.18695C57.7094 6.47276 56.3812 5.9133 55 5.52096V4.99396H61.764C62.1687 4.99494 62.5609 5.13435 62.8754 5.38902C63.1899 5.6437 63.4079 5.99831 63.493 6.39395L64.957 13.848C63.8744 12.0847 62.503 10.5162 60.9 9.20795V9.20795Z" fill="#FFB927"/>
<path d="M364.5 26C371.404 26 377 20.4036 377 13.5C377 6.59644 371.404 1 364.5 1C357.596 1 352 6.59644 352 13.5C352 20.4036 357.596 26 364.5 26Z" fill="#EC0020"/>
<path d="M384.5 26C391.404 26 397 20.4036 397 13.5C397 6.59644 391.404 1 384.5 1C377.596 1 372 6.59644 372 13.5C372 20.4036 377.596 26 384.5 26Z" fill="#FE9A0C"/>
<path fill-rule="evenodd" clip-rule="evenodd" d="M360.561 16.96H359.443L360.466 11.268H360.447L358.357 16.96H357L356.975 11.268H356.956L356.126 16.96H355L356.225 9.96899H357.975L358.05 15.415H358.069L360.052 9.96899H361.782L360.564 16.96H360.561ZM368.984 13.06C368.49 12.9619 367.987 12.9253 367.484 12.951C366.878 13.024 366.746 13.207 366.708 13.419C366.569 14.202 369.328 13.451 368.993 15.265C368.906 15.77 368.638 16.2262 368.24 16.5484C367.841 16.8706 367.339 17.0368 366.827 17.016C366.221 17.0607 365.613 16.9786 365.041 16.775L365.205 15.817C365.767 15.9374 366.342 15.9891 366.916 15.971C367.103 15.9887 367.291 15.9507 367.456 15.8617C367.621 15.7727 367.756 15.6367 367.844 15.471C367.996 14.645 365.244 15.271 365.577 13.423C365.667 12.9694 365.925 12.5667 366.3 12.2963C366.676 12.0258 367.139 11.9078 367.598 11.966C368.12 11.972 368.639 12.0508 369.139 12.2L368.987 13.062L368.984 13.06ZM369.616 12.829L370.026 10.982H371.144L370.904 11.907H371.6L371.43 12.828H370.73L370.238 15.497C370.187 15.79 370.175 15.897 370.629 15.897C370.708 15.8966 370.786 15.8892 370.863 15.875L370.705 16.869C370.528 16.877 370.326 17.001 370.149 17.001H370.01C369.856 17.0336 369.695 17.0224 369.547 16.9686C369.398 16.9148 369.268 16.8207 369.17 16.6967C369.072 16.5728 369.011 16.424 368.993 16.2671C368.976 16.1103 369.002 15.9516 369.07 15.809L369.613 12.825L369.616 12.829ZM372.31 14.959C372.264 15.0833 372.25 15.2172 372.27 15.3482C372.289 15.4793 372.341 15.6035 372.42 15.7095C372.5 15.8154 372.604 15.8998 372.725 15.9549C372.845 16.01 372.978 16.0341 373.11 16.025C373.806 16.0727 374.497 15.873 375.061 15.461L374.884 16.383C374.312 16.8067 373.604 17.0069 372.895 16.946C371.702 16.946 370.895 16.281 371.272 14.262C371.386 13.67 371.91 11.768 373.766 11.768C374.606 11.768 375.68 12.487 375.266 14.733L375.228 14.959H372.31V14.959ZM374.231 14C374.314 13.2 373.916 12.837 373.556 12.837C373.278 12.8909 373.025 13.0334 372.835 13.243C372.644 13.4526 372.527 13.7182 372.5 14H374.236H374.231ZM375.968 11.995H377.035L376.877 12.749H376.9C377.016 12.4805 377.201 12.2483 377.438 12.077C377.675 11.9057 377.954 11.8017 378.245 11.776C378.321 11.776 378.485 11.813 378.555 11.82L378.144 13.1C377.97 13.0733 377.792 13.0824 377.621 13.1267C377.45 13.171 377.29 13.2496 377.151 13.3576C377.012 13.4656 376.896 13.6009 376.81 13.7552C376.725 13.9095 376.672 14.0795 376.654 14.255L376.187 17.009H375.069L375.969 11.995H375.968ZM382.718 11.462C382.304 11.1978 381.803 11.1082 381.323 11.213C380.755 11.313 379.823 11.652 379.473 13.531C379.296 14.489 379.391 15.637 380.312 15.856C380.63 15.9349 380.961 15.9438 381.283 15.8819C381.605 15.8201 381.909 15.6891 382.175 15.498L381.875 16.705C381.742 16.756 381.622 17.093 380.24 17.005C378.712 16.905 377.834 15.805 378.257 13.51C378.68 11.192 380.057 9.99199 381.54 10.01C381.801 10.01 382.06 10.0653 382.298 10.1723C382.536 10.2794 382.749 10.4357 382.923 10.631L382.723 11.465L382.718 11.462ZM392.796 16.962H391.7L391.813 16.207H391.8C391.652 16.4352 391.449 16.6225 391.21 16.7515C390.97 16.8805 390.702 16.947 390.43 16.945C389.167 16.945 388.876 15.658 389.122 14.306C389.438 12.606 390.422 11.767 391.358 11.767C391.6 11.7523 391.839 11.8205 392.036 11.9603C392.234 12.1002 392.378 12.3033 392.444 12.536H392.463L392.892 9.98599H394.01L392.8 16.96L392.796 16.962ZM390.902 15.885C391.243 15.8339 391.555 15.6644 391.784 15.4062C392.012 15.1481 392.143 14.8177 392.152 14.473C392.297 13.683 392.247 12.886 391.483 12.886C391.134 12.9561 390.821 13.1459 390.597 13.4226C390.374 13.6992 390.254 14.0453 390.258 14.401C390.15 14.978 390.188 15.885 390.902 15.885V15.885ZM386.052 15.775C386.052 15.775 385.945 16.302 385.92 16.565L385.863 17.008H384.872C384.849 16.7512 384.849 16.4928 384.872 16.236C384.686 16.4533 384.456 16.6289 384.198 16.7511C383.939 16.8733 383.658 16.9394 383.372 16.945C383.197 16.9546 383.023 16.9202 382.865 16.8448C382.706 16.7694 382.57 16.6554 382.467 16.5135C382.365 16.3715 382.3 16.206 382.278 16.0322C382.256 15.8585 382.278 15.682 382.342 15.519C382.386 15.1245 382.561 14.756 382.838 14.4714C383.114 14.1869 383.478 14.0024 383.871 13.947L384.906 13.771C385.089 13.742 385.316 13.881 385.373 13.603C385.393 13.5149 385.391 13.4232 385.367 13.3361C385.343 13.249 385.297 13.1693 385.235 13.1041C385.172 13.0389 385.094 12.9902 385.008 12.9624C384.922 12.9347 384.831 12.9287 384.742 12.945C384.155 12.9228 383.57 13.0328 383.031 13.267L383.283 12.309C383.836 12.0406 384.452 11.9289 385.064 11.986C385.664 12.009 386.718 12.199 386.516 13.386L386.055 15.77L386.052 15.775ZM385.175 14.422C384.93 14.573 384.653 14.6635 384.366 14.686C384.154 14.6852 383.948 14.7595 383.785 14.8959C383.622 15.0322 383.513 15.2218 383.476 15.431C383.448 15.4972 383.437 15.5695 383.444 15.6411C383.451 15.7128 383.476 15.7814 383.517 15.8407C383.558 15.8999 383.614 15.9478 383.678 15.9798C383.743 16.0119 383.814 16.0271 383.886 16.024C384.163 16.0181 384.43 15.9187 384.643 15.7421C384.856 15.5655 385.004 15.3219 385.061 15.051L385.175 14.422ZM387.088 11.994H388.155L388 12.84H388.019C388.135 12.5716 388.321 12.3394 388.557 12.1681C388.794 11.9968 389.073 11.8928 389.364 11.867C389.44 11.867 389.604 11.904 389.674 11.911L389.263 13.19C389.184 13.1771 389.103 13.1721 389.023 13.175C388.87 13.1625 388.716 13.1805 388.57 13.228C388.424 13.2755 388.289 13.3516 388.173 13.4518C388.056 13.5521 387.961 13.6744 387.892 13.8118C387.824 13.9492 387.783 14.0988 387.773 14.252L387.306 17.006H386.188L387.088 11.992V11.994ZM364.788 15.775C364.788 15.775 364.681 16.302 364.655 16.565L364.599 17.009H363.6C363.578 16.7518 363.578 16.4932 363.6 16.236C363.419 16.4634 363.191 16.6499 362.933 16.7829C362.674 16.916 362.39 16.9927 362.1 17.008C361.922 17.008 361.747 16.9648 361.589 16.8822C361.431 16.7995 361.296 16.6798 361.195 16.5334C361.094 16.3869 361.03 16.2181 361.008 16.0415C360.986 15.8648 361.008 15.6855 361.071 15.519C361.115 15.1247 361.29 14.7563 361.566 14.4717C361.843 14.1872 362.206 14.0026 362.599 13.947L363.635 13.771C363.745 13.7666 363.849 13.7263 363.934 13.6564C364.018 13.5865 364.077 13.4908 364.102 13.384C364.197 12.836 363.755 12.921 363.471 12.913C362.883 12.8912 362.298 13.0012 361.759 13.235L362.012 12.277C362.565 12.0088 363.181 11.8975 363.793 11.955C364.393 11.978 365.447 12.168 365.245 13.355L364.784 15.771L364.788 15.775ZM363.91 14.422C363.666 14.5732 363.389 14.6638 363.102 14.686C362.89 14.6852 362.684 14.7595 362.521 14.8959C362.358 15.0322 362.249 15.2218 362.212 15.431C362.184 15.4972 362.173 15.5695 362.18 15.6411C362.187 15.7128 362.212 15.7814 362.253 15.8407C362.294 15.8999 362.35 15.9478 362.414 15.9798C362.479 16.0119 362.55 16.0271 362.622 16.024C362.899 16.0181 363.166 15.9187 363.379 15.7421C363.592 15.5655 363.74 15.3219 363.797 15.051L363.91 14.422V14.422Z" fill="white"/>
<path fill-rule="evenodd" clip-rule="evenodd" d="M360.561 16.96H359.443L360.466 11.268H360.447L358.357 16.96H357L356.975 11.268H356.956L356.126 16.96H355L356.225 9.96899H357.975L358.05 15.415H358.069L360.052 9.96899H361.782L360.564 16.96H360.561ZM368.984 13.06C368.49 12.9619 367.987 12.9253 367.484 12.951C366.878 13.024 366.746 13.207 366.708 13.419C366.569 14.202 369.328 13.451 368.993 15.265C368.906 15.77 368.638 16.2262 368.24 16.5484C367.841 16.8706 367.339 17.0368 366.827 17.016C366.221 17.0607 365.613 16.9786 365.041 16.775L365.205 15.817C365.767 15.9374 366.342 15.9891 366.916 15.971C367.103 15.9887 367.291 15.9507 367.456 15.8617C367.621 15.7727 367.756 15.6367 367.844 15.471C367.996 14.645 365.244 15.271 365.577 13.423C365.667 12.9694 365.925 12.5667 366.3 12.2963C366.676 12.0258 367.139 11.9078 367.598 11.966C368.12 11.972 368.639 12.0508 369.139 12.2L368.987 13.062L368.984 13.06ZM369.616 12.829L370.026 10.982H371.144L370.904 11.907H371.6L371.43 12.828H370.73L370.238 15.497C370.187 15.79 370.175 15.897 370.629 15.897C370.708 15.8966 370.786 15.8892 370.863 15.875L370.705 16.869C370.528 16.877 370.326 17.001 370.149 17.001H370.01C369.856 17.0336 369.695 17.0224 369.547 16.9686C369.398 16.9148 369.268 16.8207 369.17 16.6967C369.072 16.5728 369.011 16.424 368.993 16.2671C368.976 16.1103 369.002 15.9516 369.07 15.809L369.613 12.825L369.616 12.829ZM372.31 14.959C372.264 15.0833 372.25 15.2172 372.27 15.3482C372.289 15.4793 372.341 15.6035 372.42 15.7095C372.5 15.8154 372.604 15.8998 372.725 15.9549C372.845 16.01 372.978 16.0341 373.11 16.025C373.806 16.0727 374.497 15.873 375.061 15.461L374.884 16.383C374.312 16.8067 373.604 17.0069 372.895 16.946C371.702 16.946 370.895 16.281 371.272 14.262C371.386 13.67 371.91 11.768 373.766 11.768C374.606 11.768 375.68 12.487 375.266 14.733L375.228 14.959H372.31V14.959ZM374.231 14C374.314 13.2 373.916 12.837 373.556 12.837C373.278 12.8909 373.025 13.0334 372.835 13.243C372.644 13.4526 372.527 13.7182 372.5 14H374.236H374.231ZM375.968 11.995H377.035L376.877 12.749H376.9C377.016 12.4805 377.201 12.2483 377.438 12.077C377.675 11.9057 377.954 11.8017 378.245 11.776C378.321 11.776 378.485 11.813 378.555 11.82L378.144 13.1C377.97 13.0733 377.792 13.0824 377.621 13.1267C377.45 13.171 377.29 13.2496 377.151 13.3576C377.012 13.4656 376.896 13.6009 376.81 13.7552C376.725 13.9095 376.672 14.0795 376.654 14.255L376.187 17.009H375.069L375.969 11.995H375.968ZM382.718 11.462C382.304 11.1978 381.803 11.1082 381.323 11.213C380.755 11.313 379.823 11.652 379.473 13.531C379.296 14.489 379.391 15.637 380.312 15.856C380.63 15.9349 380.961 15.9438 381.283 15.8819C381.605 15.8201 381.909 15.6891 382.175 15.498L381.875 16.705C381.742 16.756 381.622 17.093 380.24 17.005C378.712 16.905 377.834 15.805 378.257 13.51C378.68 11.192 380.057 9.99199 381.54 10.01C381.801 10.01 382.06 10.0653 382.298 10.1723C382.536 10.2794 382.749 10.4357 382.923 10.631L382.723 11.465L382.718 11.462ZM392.796 16.962H391.7L391.813 16.207H391.8C391.652 16.4352 391.449 16.6225 391.21 16.7515C390.97 16.8805 390.702 16.947 390.43 16.945C389.167 16.945 388.876 15.658 389.122 14.306C389.438 12.606 390.422 11.767 391.358 11.767C391.6 11.7523 391.839 11.8205 392.036 11.9603C392.234 12.1002 392.378 12.3033 392.444 12.536H392.463L392.892 9.98599H394.01L392.8 16.96L392.796 16.962ZM390.902 15.885C391.243 15.8339 391.555 15.6644 391.784 15.4062C392.012 15.1481 392.143 14.8177 392.152 14.473C392.297 13.683 392.247 12.886 391.483 12.886C391.134 12.9561 390.821 13.1459 390.597 13.4226C390.374 13.6992 390.254 14.0453 390.258 14.401C390.15 14.978 390.188 15.885 390.902 15.885V15.885ZM386.052 15.775C386.052 15.775 385.945 16.302 385.92 16.565L385.863 17.008H384.872C384.849 16.7512 384.849 16.4928 384.872 16.236C384.686 16.4533 384.456 16.6289 384.198 16.7511C383.939 16.8733 383.658 16.9394 383.372 16.945C383.197 16.9546 383.023 16.9202 382.865 16.8448C382.706 16.7694 382.57 16.6554 382.467 16.5135C382.365 16.3715 382.3 16.206 382.278 16.0322C382.256 15.8585 382.278 15.682 382.342 15.519C382.386 15.1245 382.561 14.756 382.838 14.4714C383.114 14.1869 383.478 14.0024 383.871 13.947L384.906 13.771C385.089 13.742 385.316 13.881 385.373 13.603C385.393 13.5149 385.391 13.4232 385.367 13.3361C385.343 13.249 385.297 13.1693 385.235 13.1041C385.172 13.0389 385.094 12.9902 385.008 12.9624C384.922 12.9347 384.831 12.9287 384.742 12.945C384.155 12.9228 383.57 13.0328 383.031 13.267L383.283 12.309C383.836 12.0406 384.452 11.9289 385.064 11.986C385.664 12.009 386.718 12.199 386.516 13.386L386.055 15.77L386.052 15.775ZM385.175 14.422C384.93 14.573 384.653 14.6635 384.366 14.686C384.154 14.6852 383.948 14.7595 383.785 14.8959C383.622 15.0322 383.513 15.2218 383.476 15.431C383.448 15.4972 383.437 15.5695 383.444 15.6411C383.451 15.7128 383.476 15.7814 383.517 15.8407C383.558 15.8999 383.614 15.9478 383.678 15.9798C383.743 16.0119 383.814 16.0271 383.886 16.024C384.163 16.0181 384.43 15.9187 384.643 15.7421C384.856 15.5655 385.004 15.3219 385.061 15.051L385.175 14.422ZM387.088 11.994H388.155L388 12.84H388.019C388.135 12.5716 388.321 12.3394 388.557 12.1681C388.794 11.9968 389.073 11.8928 389.364 11.867C389.44 11.867 389.604 11.904 389.674 11.911L389.263 13.19C389.184 13.1771 389.103 13.1721 389.023 13.175C388.87 13.1625 388.716 13.1805 388.57 13.228C388.424 13.2755 388.289 13.3516 388.173 13.4518C388.056 13.5521 387.961 13.6744 387.892 13.8118C387.824 13.9492 387.783 14.0988 387.773 14.252L387.306 17.006H386.188L387.088 11.992V11.994ZM364.788 15.775C364.788 15.775 364.681 16.302 364.655 16.565L364.599 17.009H363.6C363.578 16.7518 363.578 16.4932 363.6 16.236C363.419 16.4634 363.191 16.6499 362.933 16.7829C362.674 16.916 362.39 16.9927 362.1 17.008C361.922 17.008 361.747 16.9648 361.589 16.8822C361.431 16.7995 361.296 16.6798 361.195 16.5334C361.094 16.3869 361.03 16.2181 361.008 16.0415C360.986 15.8648 361.008 15.6855 361.071 15.519C361.115 15.1247 361.29 14.7563 361.566 14.4717C361.843 14.1872 362.206 14.0026 362.599 13.947L363.635 13.771C363.745 13.7666 363.849 13.7263 363.934 13.6564C364.018 13.5865 364.077 13.4908 364.102 13.384C364.197 12.836 363.755 12.921 363.471 12.913C362.883 12.8912 362.298 13.0012 361.759 13.235L362.012 12.277C362.565 12.0088 363.181 11.8975 363.793 11.955C364.393 11.978 365.447 12.168 365.245 13.355L364.784 15.771L364.788 15.775ZM363.91 14.422C363.666 14.5732 363.389 14.6638 363.102 14.686C362.89 14.6852 362.684 14.7595 362.521 14.8959C362.358 15.0322 362.249 15.2218 362.212 15.431C362.184 15.4972 362.173 15.5695 362.18 15.6411C362.187 15.7128 362.212 15.7814 362.253 15.8407C362.294 15.8999 362.35 15.9478 362.414 15.9798C362.479 16.0119 362.55 16.0271 362.622 16.024C362.899 16.0181 363.166 15.9187 363.379 15.7421C363.592 15.5655 363.74 15.3219 363.797 15.051L363.91 14.422V14.422Z" fill="white"/>
<path d="M439.5 26C446.404 26 452 20.4036 452 13.5C452 6.59644 446.404 1 439.5 1C432.596 1 427 6.59644 427 13.5C427 20.4036 432.596 26 439.5 26Z" fill="#E70025"/>
<path d="M454.5 26C461.404 26 467 20.4036 467 13.5C467 6.59644 461.404 1 454.5 1C447.596 1 442 6.59644 442 13.5C442 20.4036 447.596 26 454.5 26Z" fill="#F59E2D"/>
<path fill-rule="evenodd" clip-rule="evenodd" d="M442 13.5C442 11.5619 442.452 9.65042 443.32 7.91748C444.188 6.18454 445.448 4.67783 447 3.517C448.552 4.67778 449.812 6.18448 450.68 7.91743C451.548 9.65038 452 11.5618 452 13.5C452 15.4382 451.548 17.3496 450.68 19.0826C449.812 20.8155 448.552 22.3222 447 23.483C445.448 22.3222 444.188 20.8155 443.32 19.0825C442.452 17.3496 442 15.4381 442 13.5V13.5Z" fill="#FC5D1D"/>
<defs>
<filter id="filter0_f" x="232" y="202.423" width="30.6154" height="30.6154" filterUnits="userSpaceOnUse" color-interpolation-filters="sRGB">
<feFlood flood-opacity="0" result="BackgroundImageFix"/>
<feBlend mode="normal" in="SourceGraphic" in2="BackgroundImageFix" result="shape"/>
<feGaussianBlur stdDeviation="4" result="effect1_foregroundBlur"/>
</filter>
<filter id="filter1_f" x="225.423" y="188.538" width="30.6154" height="30.6154" filterUnits="userSpaceOnUse" color-interpolation-filters="sRGB">
<feFlood flood-opacity="0" result="BackgroundImageFix"/>
<feBlend mode="normal" in="SourceGraphic" in2="BackgroundImageFix" result="shape"/>
<feGaussianBlur stdDeviation="4" result="effect1_foregroundBlur"/>
</filter>
<filter id="filter2_f" x="228.154" y="199.308" width="23.6923" height="23.6923" filterUnits="userSpaceOnUse" color-interpolation-filters="sRGB">
<feFlood flood-opacity="0" result="BackgroundImageFix"/>
<feBlend mode="normal" in="SourceGraphic" in2="BackgroundImageFix" result="shape"/>
<feGaussianBlur stdDeviation="3" result="effect1_foregroundBlur"/>
</filter>
<filter id="filter3_f" x="559" y="9" width="36" height="36" filterUnits="userSpaceOnUse" color-interpolation-filters="sRGB">
<feFlood flood-opacity="0" result="BackgroundImageFix"/>
<feBlend mode="normal" in="SourceGraphic" in2="BackgroundImageFix" result="shape"/>
<feGaussianBlur stdDeviation="4" result="effect1_foregroundBlur"/>
</filter>
<filter id="filter4_f" x="550" y="-10" width="36" height="36" filterUnits="userSpaceOnUse" color-interpolation-filters="sRGB">
<feFlood flood-opacity="0" result="BackgroundImageFix"/>
<feBlend mode="normal" in="SourceGraphic" in2="BackgroundImageFix" result="shape"/>
<feGaussianBlur stdDeviation="4" result="effect1_foregroundBlur"/>
</filter>
<filter id="filter5_f" x="553" y="4" width="28" height="28" filterUnits="userSpaceOnUse" color-interpolation-filters="sRGB">
<feFlood flood-opacity="0" result="BackgroundImageFix"/>
<feBlend mode="normal" in="SourceGraphic" in2="BackgroundImageFix" result="shape"/>
<feGaussianBlur stdDeviation="3" result="effect1_foregroundBlur"/>
</filter>
<linearGradient id="paint0_linear" x1="484" y1="205.5" x2="473.531" y2="205.5" gradientUnits="userSpaceOnUse">
<stop stop-color="#198ECA"/>
<stop offset="1" stop-color="#1DB5E4"/>
</linearGradient>
<linearGradient id="paint1_linear" x1="601" y1="211.956" x2="588" y2="205.044" gradientUnits="userSpaceOnUse">
<stop stop-color="#19A7F5"/>
<stop offset="1" stop-color="#1D90E9"/>
</linearGradient>
<linearGradient id="paint2_linear" x1="18345" y1="581" x2="17948.5" y2="581" gradientUnits="userSpaceOnUse">
<stop stop-color="#198ECA"/>
<stop offset="1" stop-color="#1DB5E4"/>
</linearGradient>
<linearGradient id="paint3_linear" x1="19940.4" y1="2604.29" x2="19581.2" y2="2461.94" gradientUnits="userSpaceOnUse">
<stop stop-color="#19A7F5"/>
<stop offset="1" stop-color="#1D90E9"/>
</linearGradient>
</defs>
</svg>